# xmcd
#
# Track frame offsets:
#	150
#	15779
#	27534
#	46638
#	64429
#	81610
#	97494
#	112210
#	128640
#	147763
#	164317
#	179021
#	195501
#	210914
#	226211
#	244723
#	261738
#	274525
#	294541
#
# Disc length: 4192 seconds
#
# Revision: 4
# Processed by: cddbd v1.5.1PL0 Copyright (c) Steve Scherf et al.
# Submitted via: audiograbber 1.83.01
#
DISCID=1b105e13
DTITLE=Various Artist - RC67 TopHits USA Country August 2001
DYEAR=1900
DGENRE=Country
TTITLE0=Phil Vassar - Six-Pack Summer (Radio Edit)
TTITLE1=Charlie Robison - I Want You Bad
TTITLE2=Sons Of The Desert - What I Did Right [Radio Edit]
TTITLE3=Chely Wright - Never Love You Enough
TTITLE4=Darryl Worley - Second Wind
TTITLE5=Tracy Byrd and Mark Chesnutt - A Good Way To Get On My Bad Side
TTITLE6=Andy Griggs - How Cool Is That
TTITLE7=Lee Ann Womack - Why They Call It Falling
TTITLE8=Mark Wills - Loving Every Minute
TTITLE9=Tammy Cochran - Angels In Waiting
TTITLE10=Clark Family Experience - Standing Still
TTITLE11=Carolyn Dawn Johnson - Complicated [Single Edit]
TTITLE12=Diamond Rio - Sweet Summer
TTITLE13=Cyndi Thompson - What I Really Mean To Say
TTITLE14=Warren Brothers - Where Does It Hurt [Single Version]
TTITLE15=Trisha Yearwood - I Would've Loved You Anyway
TTITLE16=Kenny Rogers - There You Go Again
TTITLE17=SHeDAISY - Still Holding Out For You
TTITLE18=Jeff Carson - Real Life (I Never Was The Same Again)
EXTD=ID3G: 2
EXTT0=
EXTT1=
EXTT2=
EXTT3=
EXTT4=
EXTT5=
EXTT6=
EXTT7=
EXTT8=
EXTT9=
EXTT10=
EXTT11=
EXTT12=
EXTT13=
EXTT14=
EXTT15=
EXTT16=
EXTT17=
EXTT18=
PLAYORDER=
